<svg xmlns="http://www.w3.org/2000/svg" width="13.85" height="14" viewBox="0 0 13.85 14"><title>ic-full</title><path d="M13.72.13A.43.43,0,0,0,13.33,0l-4,.74A.49.49,0,0,0,9,1.09a.5.5,0,0,0,.13.49l.62.63-2,2a.4.4,0,0,0,0,.57L9.13,6.09a.41.41,0,0,0,.58,0l2-2,.63.63a.48.48,0,0,0,.49.12.49.49,0,0,0,.33-.38l.73-4A.43.43,0,0,0,13.72.13Z" fill="#fff"/><path d="M2.19,9.87l-.63-.63a.51.51,0,0,0-.5-.12.49.49,0,0,0-.33.38l-.72,4a.43.43,0,0,0,.12.39A.43.43,0,0,0,.52,14l4-.74a.47.47,0,0,0,.38-.34.49.49,0,0,0-.12-.49l-.63-.63,2-1.95a.41.41,0,0,0,0-.58L4.72,7.91a.41.41,0,0,0-.58,0Z" fill="#fff"/></svg>