<svg xmlns="http://www.w3.org/2000/svg" xmlns:xlink="http://www.w3.org/1999/xlink" width="11.27" height="16" viewBox="0 0 11.27 16"><defs><linearGradient id="a" x1="5.63" x2="5.63" y2="16" gradientUnits="userSpaceOnUse"><stop offset="0" stop-color="#ffa92a"/><stop offset="1" stop-color="#f98e3c"/></linearGradient><linearGradient id="b" x1="5.63" y1="4.38" x2="5.63" y2="7.29" xlink:href="#a"/></defs><title>ic-mouse</title><path d="M5.63,0A5.69,5.69,0,0,0,0,5.72v4.56A5.69,5.69,0,0,0,5.63,16a5.68,5.68,0,0,0,5.64-5.7V5.72A5.69,5.69,0,0,0,5.63,0Zm4.58,10.3a4.61,4.61,0,0,1-4.58,4.64,4.62,4.62,0,0,1-4.57-4.66V5.72A4.62,4.62,0,0,1,5.63,1.06a4.62,4.62,0,0,1,4.58,4.66Z" fill="url(#a)"/><path d="M5.63,4.38a.53.53,0,0,0-.53.53V6.76a.53.53,0,0,0,.53.53.52.52,0,0,0,.53-.53V4.91A.53.53,0,0,0,5.63,4.38Z" fill="url(#b)"/></svg>