<svg xmlns="http://www.w3.org/2000/svg" xmlns:xlink="http://www.w3.org/1999/xlink" width="187" height="35.8" viewBox="0 0 187 35.8"><defs><linearGradient id="a" x1="2.92" y1="14.39" x2="8.46" y2="14.39" gradientUnits="userSpaceOnUse"><stop offset="0" stop-color="#ffa92a"/><stop offset="0.25" stop-color="#ffa92a"/><stop offset="0.75" stop-color="#f98e3c"/><stop offset="1" stop-color="#f98e3c"/></linearGradient><linearGradient id="b" x1="9.51" y1="31.14" x2="42.01" y2="31.14" gradientUnits="userSpaceOnUse"><stop offset="0" stop-color="#ffa92a"/><stop offset="1" stop-color="#f98e3c"/></linearGradient><linearGradient id="c" x1="0.22" y1="17.8" x2="25.19" y2="17.8" gradientUnits="userSpaceOnUse"><stop offset="0" stop-color="#ffa92a"/><stop offset="0.91" stop-color="#f98e3c"/><stop offset="1" stop-color="#f98e3c"/></linearGradient><linearGradient id="d" x1="20.21" y1="-1.71" x2="34.33" y2="28.56" xlink:href="#b"/></defs><title>Ресурс 2</title><path d="M55.54.06A13.68,13.68,0,0,1,62.87,1.9a11.48,11.48,0,0,1,4.54,5.42L60.22,10a4.73,4.73,0,0,0-1.79-2,5.06,5.06,0,0,0-2.75-.74,4.44,4.44,0,0,0-1.83.37,4.53,4.53,0,0,0-1.48,1,5.13,5.13,0,0,0-1,1.53A4.48,4.48,0,0,0,51,11.93a5.21,5.21,0,0,0,.36,1.93,4.94,4.94,0,0,0,1,1.63,4.58,4.58,0,0,0,1.5,1.12,4.43,4.43,0,0,0,1.89.41,4.77,4.77,0,0,0,3-1,4.67,4.67,0,0,0,.95-.93,3.9,3.9,0,0,0,.56-.95l7.33,2a10.1,10.1,0,0,1-1.63,3.4,10.58,10.58,0,0,1-2.75,2.58,13.27,13.27,0,0,1-3.68,1.65,16.41,16.41,0,0,1-4.42.57,13.16,13.16,0,0,1-4.77-.86,11.35,11.35,0,0,1-6.47-6.33,12.75,12.75,0,0,1-1-5.08,12.09,12.09,0,0,1,.9-4.66A11.56,11.56,0,0,1,46.3,3.59a12.26,12.26,0,0,1,4-2.58A13.91,13.91,0,0,1,55.54.06Z" fill="#fff"/><path d="M79.62,10.24,85.52.47h8.61L87.21,11.05l8.07,12.89H85.72l-6.1-10v10H71.48V.47h8.14Z" fill="#fff"/><path d="M106,23.94H97.89l14-23.88,14,23.88h-8.1l-1.42-3h-8.89Zm3.59-7.9h4.55l-2.28-4.92Z" fill="#fff"/><path d="M137.63,24h-9.35L141.84.1,155.61,24h-9.36l-4.34-9.29Z" fill="#fff"/><path d="M166.22,23.94h-8.11l14-23.88,14,23.88H178l-1.42-3h-8.89Zm3.59-7.9h4.55l-2.28-4.92Z" fill="#fff"/><path d="M48.42,35.41a2.87,2.87,0,0,1-1.1-1.06,3,3,0,0,1-.4-1.52,2.91,2.91,0,0,1,.41-1.52,2.81,2.81,0,0,1,1.1-1.06A3.21,3.21,0,0,1,50,29.87a3.37,3.37,0,0,1,1.29.24,2.75,2.75,0,0,1,1,.72l-.69.65a2,2,0,0,0-1.54-.67,2.06,2.06,0,0,0-1.06.26,1.83,1.83,0,0,0-.74.72,2.08,2.08,0,0,0-.26,1,2.15,2.15,0,0,0,.26,1.05,2,2,0,0,0,.74.72,2.16,2.16,0,0,0,1.06.26,2,2,0,0,0,1.54-.69l.69.66a2.75,2.75,0,0,1-1,.72,3.42,3.42,0,0,1-1.3.25A3.22,3.22,0,0,1,48.42,35.41Z" fill="#999"/><path d="M58.06,30.86H56.15v4.85H55.09V30.86h-1.9V30h4.87Z" fill="#999"/><path d="M63.32,30.2a1.91,1.91,0,0,1,.85.7,2,2,0,0,1,.3,1.1,2,2,0,0,1-.3,1.09,1.87,1.87,0,0,1-.85.71,3.13,3.13,0,0,1-1.31.25h-1.3v1.66H59.64V30H62A3.13,3.13,0,0,1,63.32,30.2ZM63,32.85a1.18,1.18,0,0,0,0-1.7A1.66,1.66,0,0,0,62,30.86H60.71v2.28H62A1.66,1.66,0,0,0,63,32.85Z" fill="#999"/><path d="M67.3,35.41a2.83,2.83,0,0,1-1.11-1.06,2.94,2.94,0,0,1,1.11-4.1,3.52,3.52,0,0,1,3.18,0,3,3,0,0,1,1.11,4.1,2.83,2.83,0,0,1-1.11,1.06,3.44,3.44,0,0,1-3.18,0Zm2.63-.81a2.13,2.13,0,0,0,.72-2.81,1.91,1.91,0,0,0-.72-.72,2,2,0,0,0-1-.26,2,2,0,0,0-1,.26,1.78,1.78,0,0,0-.72.72,2,2,0,0,0-.27,1,2,2,0,0,0,.27,1,1.87,1.87,0,0,0,.72.73,2.11,2.11,0,0,0,1,.26A2.14,2.14,0,0,0,69.93,34.6Z" fill="#999"/><path d="M73.84,30H74.9V34L78,30h1v5.76h-1V31.63l-3.1,4.08h-1Z" fill="#999"/><path d="M85.44,30.86H83.53v4.85H82.47V30.86h-1.9V30h4.87Z" fill="#999"/><path d="M91.35,34.82v.89H87V30h4.2v.9H88.1v1.5h2.78v.88H88.1v1.59Z" fill="#999"/><path d="M98.12,30v5.76H97.07V30.86H94.8l0,1.44a12.79,12.79,0,0,1-.2,2,2.41,2.41,0,0,1-.5,1.14,1.22,1.22,0,0,1-1,.4,2.65,2.65,0,0,1-.58-.09l.07-.93a.93.93,0,0,0,.25,0,.75.75,0,0,0,.71-.6,6.87,6.87,0,0,0,.26-1.88L93.88,30Z" fill="#999"/><path d="M104.66,32.37a1.7,1.7,0,0,1,.55,1.38,1.79,1.79,0,0,1-.61,1.46,2.62,2.62,0,0,1-1.71.5h-2.48V30h1.06V31.9h1.59A2.42,2.42,0,0,1,104.66,32.37Zm-.86,2.23a1,1,0,0,0,.34-.84c0-.7-.43-1-1.3-1h-1.37v2.17h1.37A1.43,1.43,0,0,0,103.8,34.6Z" fill="#999"/><path d="M112.09,30v5.76H111V33.24h-3v2.47H107V30H108v2.38h3V30Z" fill="#999"/><path d="M118.18,34.38H115.3l-.57,1.33h-1.1L116.22,30h1l2.61,5.76h-1.12Zm-.35-.84L116.74,31l-1.08,2.52Z" fill="#999"/><path d="M125.52,30v5.76h-1v-1.6h-1.54l-1.07,1.6h-1.13L122,33.93a1.84,1.84,0,0,1-.93-.7,2,2,0,0,1-.32-1.16,2.1,2.1,0,0,1,.29-1.14,1.93,1.93,0,0,1,.84-.73,3,3,0,0,1,1.28-.25Zm-3.37,1.21a1.31,1.31,0,0,0,0,1.77,1.42,1.42,0,0,0,1,.3h1.35V30.86h-1.31A1.52,1.52,0,0,0,122.15,31.16Z" fill="#999"/><path d="M132.86,33.28h-1.07v2.43h-1V30h1v2.41h1.1L134.55,30h1.13l-2,2.79,2,3h-1.21Z" fill="#999"/><path d="M138.21,35.41a2.83,2.83,0,0,1-1.11-1.06,2.94,2.94,0,0,1,1.11-4.1,3.52,3.52,0,0,1,3.18,0,3,3,0,0,1,1.11,4.1,2.83,2.83,0,0,1-1.11,1.06,3.44,3.44,0,0,1-3.18,0Zm2.63-.81a1.94,1.94,0,0,0,.72-.73,2,2,0,0,0,.27-1,2,2,0,0,0-.27-1,1.85,1.85,0,0,0-.72-.72,2.21,2.21,0,0,0-2.08,0,1.78,1.78,0,0,0-.72.72,2,2,0,0,0-.27,1,2,2,0,0,0,.27,1,1.87,1.87,0,0,0,.72.73,2.21,2.21,0,0,0,2.08,0Z" fill="#999"/><path d="M150,35.71V31.89l-1.89,3.16h-.48l-1.89-3.11v3.77h-1V30h.88l2.28,3.81L150.17,30h.88v5.76Z" fill="#999"/><path d="M158.44,30v5.76h-1.05V30.86h-3v4.85h-1.06V30Z" fill="#999"/><path d="M164.54,34.38h-2.88l-.57,1.33H160L162.58,30h1l2.61,5.76h-1.12Zm-.35-.84L163.1,31,162,33.54Z" fill="#999"/><path d="M172.9,30v5.76h-1.07V33.24h-3v2.47h-1.07V30h1.07v2.38h3V30Z" fill="#999"/><path d="M175.18,30h1V34l3.1-4.09h1v5.76h-1V31.63l-3.1,4.08h-1Z" fill="#999"/><path d="M187,30v5.76H186v-1.6h-1.54l-1.07,1.6h-1.13l1.23-1.78a1.77,1.77,0,0,1-.92-.7,2,2,0,0,1-.33-1.16,2.11,2.11,0,0,1,.3-1.14,1.93,1.93,0,0,1,.84-.73A3,3,0,0,1,184.6,30Zm-3.37,1.21a1.31,1.31,0,0,0,0,1.77,1.42,1.42,0,0,0,1,.3H186V30.86h-1.31A1.5,1.5,0,0,0,183.63,31.16Z" fill="#999"/><path d="M10.88,11.28,7.11,19.35,4.06,17.91A4.45,4.45,0,0,1,5.94,9.42a4.51,4.51,0,0,1,1.88.42Z" fill="url(#a)"/><path d="M41.12,35.59H9.32l4.16-8.91H38.36l3.56,7.65A.88.88,0,0,1,41.12,35.59Z" fill="url(#b)"/><path d="M25.33,1.27l-16,34.32H.89a.89.89,0,0,1-.81-1.26L15.85.51A.9.9,0,0,1,16.66,0h7.86A.9.9,0,0,1,25.33,1.27Z" fill="url(#c)"/><path d="M38.36,26.68H28.53L16.32.48a.34.34,0,0,1,.3-.48h8.73a.89.89,0,0,1,.81.51Z" fill="url(#d)"/></svg>