<svg xmlns="http://www.w3.org/2000/svg" xmlns:xlink="http://www.w3.org/1999/xlink" width="312" height="59.8" viewBox="0 0 312 59.8"><defs><linearGradient id="a" x1="4.87" y1="37.96" x2="14.12" y2="37.96" gradientTransform="matrix(1, 0, 0, -1, 0, 61.96)" gradientUnits="userSpaceOnUse"><stop offset="0" stop-color="#ffa92a"/><stop offset="0.25" stop-color="#ffa92a"/><stop offset="0.75" stop-color="#f98e3c"/><stop offset="1" stop-color="#f98e3c"/></linearGradient><linearGradient id="b" x1="15.87" y1="10.01" x2="70.09" y2="10.01" gradientTransform="matrix(1, 0, 0, -1, 0, 61.96)" gradientUnits="userSpaceOnUse"><stop offset="0" stop-color="#ffa92a"/><stop offset="1" stop-color="#f98e3c"/></linearGradient><linearGradient id="c" x1="0.37" y1="32.27" x2="42.03" y2="32.27" gradientTransform="matrix(1, 0, 0, -1, 0, 61.96)" gradientUnits="userSpaceOnUse"><stop offset="0" stop-color="#ffa92a"/><stop offset="0.91" stop-color="#f98e3c"/><stop offset="1" stop-color="#f98e3c"/></linearGradient><linearGradient id="d" x1="33.72" y1="64.8" x2="57.27" y2="14.31" xlink:href="#b"/></defs><title>logo-dark</title><path d="M92.67.1A22.81,22.81,0,0,1,104.9,3.17a19.17,19.17,0,0,1,7.57,9l-12,4.47a7.93,7.93,0,0,0-3-3.33,8.52,8.52,0,0,0-4.59-1.24,7.78,7.78,0,0,0-5.52,2.29A8.46,8.46,0,0,0,85.71,17a7.33,7.33,0,0,0-.62,2.95,8.8,8.8,0,0,0,.6,3.22,8.19,8.19,0,0,0,1.67,2.72,7.64,7.64,0,0,0,2.5,1.87A7.5,7.5,0,0,0,93,28.4a7.93,7.93,0,0,0,5-1.67,7.79,7.79,0,0,0,1.59-1.55,6.5,6.5,0,0,0,.93-1.59l12.23,3.34a16.71,16.71,0,0,1-2.72,5.67,17.6,17.6,0,0,1-4.59,4.31,22.17,22.17,0,0,1-6.14,2.75,27.35,27.35,0,0,1-7.37,1,22.07,22.07,0,0,1-8-1.43A18.92,18.92,0,0,1,73.2,28.61a21.23,21.23,0,0,1-1.67-8.47A20.14,20.14,0,0,1,73,12.36,19.31,19.31,0,0,1,77.25,6a20.32,20.32,0,0,1,6.67-4.3A23.19,23.19,0,0,1,92.67.1Z" fill="#1a1a1a"/><path d="M132.84,17.08,142.69.78h14.36L145.51,18.44,159,39.94H143L132.84,23.26V39.94H119.26V.78h13.58Z" fill="#1a1a1a"/><path d="M176.86,39.94H163.32L186.68.1,210,39.94H196.53l-2.37-5H179.33Zm6-13.18h7.59l-3.81-8.21Z" fill="#1a1a1a"/><path d="M229.63,40H214L236.65.17l23,39.87H244l-7.24-15.5Z" fill="#1a1a1a"/><path d="M277.33,39.94H263.8L287.16.1l23.36,39.84H297l-2.37-5H279.78Zm6-13.18h7.59l-3.8-8.21Z" fill="#1a1a1a"/><path d="M80.79,59.08A4.74,4.74,0,0,1,79,57.31a5.12,5.12,0,0,1-.67-2.53A4.92,4.92,0,0,1,79,52.24a4.72,4.72,0,0,1,1.83-1.77,5.34,5.34,0,0,1,2.62-.63,5.52,5.52,0,0,1,2.16.4,4.51,4.51,0,0,1,1.66,1.2l-1.15,1.08a3.35,3.35,0,0,0-2.57-1.12,3.55,3.55,0,0,0-1.77.44A3.09,3.09,0,0,0,80.52,53a3.46,3.46,0,0,0-.43,1.67,3.57,3.57,0,0,0,.43,1.75,3.37,3.37,0,0,0,1.23,1.2,3.69,3.69,0,0,0,1.77.44,3.32,3.32,0,0,0,2.57-1.16l1.15,1.11a4.51,4.51,0,0,1-1.66,1.2,5.58,5.58,0,0,1-2.17.41A5.4,5.4,0,0,1,80.79,59.08Z" fill="#999"/><path d="M96.87,51.49H93.68v8.09H91.92V51.49H88.75V50.05h8.12Z" fill="#999"/><path d="M105.65,50.39a3.13,3.13,0,0,1,1.41,1.16,3.54,3.54,0,0,1,0,3.66,3.06,3.06,0,0,1-1.41,1.18,5.15,5.15,0,0,1-2.19.42h-2.17v2.77H99.51V50.05h3.93A5.21,5.21,0,0,1,105.65,50.39Zm-.54,4.42a2,2,0,0,0,.06-2.79l-.06-.05a2.81,2.81,0,0,0-1.67-.48h-2.15v3.8h2.15A2.81,2.81,0,0,0,105.11,54.81Z" fill="#999"/><path d="M112.29,59.08a4.7,4.7,0,0,1-1.85-1.77,4.9,4.9,0,0,1,1.66-6.73,1.18,1.18,0,0,1,.19-.11,5.89,5.89,0,0,1,5.3,0,5,5,0,0,1,1.86,6.83h0a4.7,4.7,0,0,1-1.85,1.77A5.71,5.71,0,0,1,112.29,59.08Zm4.39-1.35a3.56,3.56,0,0,0,1.2-4.69,3.21,3.21,0,0,0-1.2-1.2,3.39,3.39,0,0,0-3.34,0,2.89,2.89,0,0,0-1.2,1.2,3.32,3.32,0,0,0,0,3.34,3,3,0,0,0,1.2,1.21A3.47,3.47,0,0,0,115,58,3.7,3.7,0,0,0,116.68,57.73Z" fill="#999"/><path d="M123.2,50.05H125v6.68l5.17-6.68h1.67v9.61h-1.67V52.77L125,59.58H123.3Z" fill="#999"/><path d="M142.55,51.49h-3.18v8.09H137.6V51.49h-3.17V50.05h8.12Z" fill="#999"/><path d="M152.41,58.1v1.48h-7.25V50.05h7v1.5H147v2.51h4.64v1.47H147v2.65Z" fill="#999"/><path d="M163.71,50.05v9.61H162V51.49h-3.79v2.4a22,22,0,0,1-.33,3.34,4.08,4.08,0,0,1-.84,1.9,2,2,0,0,1-1.67.67,5.19,5.19,0,0,1-1-.15l.11-1.55h.42a1.25,1.25,0,0,0,1.18-1,11.43,11.43,0,0,0,.44-3.13l.11-3.91Z" fill="#999"/><path d="M174.62,54a2.84,2.84,0,0,1,.92,2.3,3,3,0,0,1-1,2.44,4.39,4.39,0,0,1-2.85.83h-4.14V50.05h1.77v3.17H172A4.05,4.05,0,0,1,174.62,54Zm-1.43,3.72a1.65,1.65,0,0,0,.56-1.4c0-1.17-.71-1.67-2.17-1.67H169.3v3.62h2.28A2.41,2.41,0,0,0,173.19,57.73Z" fill="#999"/><path d="M187,50.05v9.61H185.2v-4.2h-5v4.12h-1.67V50.05h1.67v4h5v-4Z" fill="#999"/><path d="M197.18,57.36h-4.81l-1,2.22h-1.83l4.32-9.53h1.67l4.35,9.61h-1.87Zm-.59-1.4-1.81-4.24L193,55.93Z" fill="#999"/><path d="M209.42,50.05v9.61h-1.66V57h-2.57l-1.79,2.67h-1.88l2-3A3.06,3.06,0,0,1,202,55.44a3.3,3.3,0,0,1-.53-1.93,3.41,3.41,0,0,1,.48-1.9,3.19,3.19,0,0,1,1.4-1.22,4.9,4.9,0,0,1,2.14-.42Zm-5.62,2a2.21,2.21,0,0,0,0,3,2.39,2.39,0,0,0,1.67.5h2.25v-4h-2.18a2.53,2.53,0,0,0-1.74.5Z" fill="#999"/><path d="M221.67,55.53h-1.78v4h-1.67V50.05h1.67v4h1.83l2.77-4h1.89L223,54.71l3.34,5h-2Z" fill="#999"/><path d="M230.6,59.08a4.79,4.79,0,0,1-1.86-1.77,4.91,4.91,0,0,1,1.67-6.73,1.18,1.18,0,0,1,.19-.11,5.89,5.89,0,0,1,5.3,0,5,5,0,0,1,1.86,6.83h0a4.7,4.7,0,0,1-1.85,1.77A5.71,5.71,0,0,1,230.6,59.08ZM235,57.73a3.22,3.22,0,0,0,1.21-1.22,3.32,3.32,0,0,0,0-3.34A3.1,3.1,0,0,0,235,52a3.68,3.68,0,0,0-3.47,0,3.08,3.08,0,0,0-1.2,1.2,3.32,3.32,0,0,0,0,3.34,3.2,3.2,0,0,0,1.2,1.22A3.68,3.68,0,0,0,235,57.73Z" fill="#999"/><path d="M250.27,59.58V53.21l-3.16,5.27h-.8l-3.15-5.19v6.29h-1.67V50.05H243l3.8,6.36,3.79-6.36H252v9.61Z" fill="#999"/><path d="M264.35,50.05v9.61H262.6V51.49h-5v8.09h-1.77V50.05Z" fill="#999"/><path d="M274.53,57.36h-4.81l-1,2.22H267l4.31-9.53h1.67l4.35,9.61h-1.87Zm-.59-1.4-1.82-4.24L270.29,56Z" fill="#999"/><path d="M288.47,50.05v9.61h-1.78v-4.2h-5v4.12H279.9V50.05h1.78v4h5v-4Z" fill="#999"/><path d="M292.28,50.05H294v6.68l5.17-6.83h1.67v9.61h-1.67V52.77L294,59.58h-1.67Z" fill="#999"/><path d="M312,50.05v9.61h-1.67V57h-2.57L306,59.66h-1.89l2.05-3a2.94,2.94,0,0,1-1.53-1.16,3.35,3.35,0,0,1-.55-1.94,3.43,3.43,0,0,1,.5-1.9,3.19,3.19,0,0,1,1.4-1.22,5.1,5.1,0,0,1,2-.42Zm-5.62,2a2.19,2.19,0,0,0,0,3,2.39,2.39,0,0,0,1.67.5h2.28v-4h-2.18a2.44,2.44,0,0,0-1.77.5Z" fill="#999"/><path d="M18.15,18.82,11.86,32.28l-5.09-2.4a7.43,7.43,0,1,1,6.28-13.46Z" fill="url(#a)"/><path d="M68.61,59.38H15.55l6.94-14.87H64l5.94,12.77a1.47,1.47,0,0,1-.69,2A1.57,1.57,0,0,1,68.61,59.38Z" fill="url(#b)"/><path d="M42.26,2.12,15.57,59.38H1.49A1.49,1.49,0,0,1,0,57.9a1.6,1.6,0,0,1,.13-.62L26.45.85A1.49,1.49,0,0,1,27.8,0H40.91A1.51,1.51,0,0,1,42.4,1.52,1.55,1.55,0,0,1,42.26,2.12Z" fill="url(#c)"/><path d="M64,44.51H47.6L27.23.8a.57.57,0,0,1,.28-.75.59.59,0,0,1,.22,0H42.3a1.5,1.5,0,0,1,1.35.85Z" fill="url(#d)"/></svg>