<svg xmlns="http://www.w3.org/2000/svg" width="59.81" height="60" viewBox="0 0 59.81 60"><title>scheme-icon-4</title><path d="M59.16,43.19l-5.58-2a1,1,0,0,0-1.27.59l-.33.93-6.47-2.35a.89.89,0,0,0-.51,0L31.54,42.66a4,4,0,0,0-2.84,2.09L22.52,42.5a3.95,3.95,0,0,0-5.26,3.14A4.05,4.05,0,0,0,20,50l20.32,7.4a1.28,1.28,0,0,0,.33.06.89.89,0,0,0,.32-.05l5.68-1.92.61.22-.34.93a1,1,0,0,0,.6,1.26l5.59,2a1,1,0,0,0,1.26-.6l5.42-14.9A1,1,0,0,0,59.16,43.19ZM46.31,53.5l-5.67,1.91-20-7.29a2.09,2.09,0,0,1-1.43-2.18,2,2,0,0,1,.94-1.42,1.93,1.93,0,0,1,1.7-.16l6.42,2.34a2.47,2.47,0,0,0,.05.54,4,4,0,0,0,4.59,3.21l11.16-2-.35-1.94-11.15,2a2,2,0,0,1-2.29-1.6,1.94,1.94,0,0,1,0-.68.34.34,0,0,0,0-.1.92.92,0,0,1,.08-.25,2,2,0,0,1,1.52-1.28l13.19-2.33,6.23,2.27L47.9,53.85,47,53.52A1,1,0,0,0,46.31,53.5Zm6.5,4.24-3.72-1.35,4.75-13,3.72,1.35Z" fill="#fff"/><path d="M23.08,16a7.68,7.68,0,0,0,1.73,3.15.91.91,0,0,0,0,.23v5.4a3,3,0,0,0,3,3v9.91a1,1,0,0,0,.54.89l2,1a1,1,0,0,0,.88,0l2-1a1,1,0,0,0,.54-.89V27.73a3,3,0,0,0,3-3v-5.4a.82.82,0,0,0,0-.26,7.83,7.83,0,0,0,1.53-2.5,3.59,3.59,0,0,0,3.69-1.7,3.91,3.91,0,0,0-.62-4.82L33.17,2a7,7,0,0,0-4.92-2H17.84a1,1,0,0,0-.39.07L10.71,3H9.92V1a1,1,0,0,0-1-1H1A1,1,0,0,0,0,1V16.85a1,1,0,0,0,1,1H8.91a1,1,0,0,0,1-1v-2h.15c.71,2.38,3.9,4,6.8,4A7.91,7.91,0,0,0,23.08,16ZM7.93,15.86H2V2H7.92V15.86ZM31.71,37l-1,.49-1-.49v-9.3h2Zm3-12.26a1,1,0,0,1-1,1H27.74a1,1,0,0,1-1-1v-4a8.32,8.32,0,0,0,2.13.85A2,2,0,0,0,31,22.8a2,2,0,1,0-1.81-3.2,5.87,5.87,0,0,1-1.59-.68,7.79,7.79,0,0,1,3.14-1.08,9.39,9.39,0,0,1,4,1.54v5.39Zm.75-7.27a11.14,11.14,0,0,0-4.7-1.66A11,11,0,0,0,26,17.49a5.72,5.72,0,0,1-1.16-2.64h4.85a3.85,3.85,0,0,0,3.46-2.07L36,15.56a2.39,2.39,0,0,0,.35.28A5.29,5.29,0,0,1,35.42,17.5Zm-1.78-7.06a3.85,3.85,0,0,0-1-2.18,5.93,5.93,0,0,1,4,5.18ZM21.81,13.87c0,1.5-2.46,3-5,3s-5-1.48-5-3a1,1,0,0,0-1-1h-1V5h1a1,1,0,0,0,.38-.08L18,2H28.25a5,5,0,0,1,3.51,1.45l8.06,8.06a1.93,1.93,0,0,1,.36,2.36,1.8,1.8,0,0,1-1.53.83h0a7.67,7.67,0,0,0,0-.82A7.89,7.89,0,0,0,26.93,6.93H18.84v2h10.9a2,2,0,0,1,0,4H22.81A1,1,0,0,0,21.81,13.87Z" fill="#fff"/></svg>