<svg xmlns="http://www.w3.org/2000/svg" width="60" height="59.73" viewBox="0 0 60 59.73"><title>scheme-icon-3</title><path d="M58.54,19.91,55.73,17.1a4.92,4.92,0,0,0-6-.79V12.94a1,1,0,0,0-.3-.7L37.52.3a1,1,0,0,0-.7-.3H7A1,1,0,0,0,6,1V6H1A1,1,0,0,0,0,7V58.73a1,1,0,0,0,1,1H42.8a1,1,0,0,0,1-1v-5h5a1,1,0,0,0,1-1v-17L58.55,27a5,5,0,0,0,0-7.06ZM55,27.65l-1.4,1.41-7-7L48,20.61ZM36.73,46l-7-7L45.18,23.42l7,7ZM29,41l5.63,5.64-6.56.93ZM46.37,11.94H37.82V3.39ZM41.8,57.73H2V8H6V52.74a1,1,0,0,0,1,1H41.8v4Zm6-6H8V2H35.83v11a1,1,0,0,0,1,1H47.79V18l-.49.5L27.58,38.2a.76.76,0,0,0-.19.3c0,.09-.05.18-.09.27l-1.4,9.85a1,1,0,0,0,.84,1.12l.14,0a.34.34,0,0,0,.14,0l9.85-1.4a2,2,0,0,0,.26-.09,2.23,2.23,0,0,0,.3-.2L47.77,37.71Zm9.36-26.19-.7.7-7-7,.07-.07,0,0,.62-.61a3.06,3.06,0,0,1,4.23,0l2.81,2.81a3,3,0,0,1,0,4.25Z" fill="#fff"/><path d="M47.28,31.16l1.41-1.4,1.4,1.4-1.4,1.41Z" fill="#fff"/><path d="M36,42.44l9.85-9.85,1.4,1.4-9.85,9.85Z" fill="#fff"/><path d="M14.92,12.94a4,4,0,1,0-4-4A4,4,0,0,0,14.92,12.94Zm0-6a2,2,0,1,1-2,2A2,2,0,0,1,14.92,7Z" fill="#fff"/><path d="M20.89,8H32.83v2H20.89Z" fill="#fff"/><path d="M11.94,24.88H33.83v-9H11.94Zm2-7H31.85v5H13.94Z" fill="#fff"/><path d="M11.94,28.86h2v2h-2Z" fill="#fff"/><path d="M15.92,28.86h14v2H15.92Z" fill="#fff"/><path d="M11.94,32.83h2v2h-2Z" fill="#fff"/><path d="M15.92,32.83h14v2H15.92Z" fill="#fff"/><path d="M11.94,36.82h2v2h-2Z" fill="#fff"/><path d="M15.92,36.82h10v2h-10Z" fill="#fff"/><path d="M11.94,40.8h2v2h-2Z" fill="#fff"/><path d="M15.92,40.8h9v2h-9Z" fill="#fff"/><path d="M11.94,44.79h2v2h-2Z" fill="#fff"/><path d="M15.92,44.79h8v2h-8Z" fill="#fff"/></svg>