<svg xmlns="http://www.w3.org/2000/svg" width="59.8" height="60" viewBox="0 0 59.8 60"><title>scheme-icon-2</title><path d="M58.91,39.6a.89.89,0,0,0,.89-.89V17.2a4.58,4.58,0,0,0-4.57-4.57H45.09V.89A.89.89,0,0,0,44.2,0H22.44a.89.89,0,0,0-.89.89V13.52a.89.89,0,1,0,1.78,0V1.78h20V12.63H33.47A4.55,4.55,0,0,0,30.23,14a4.68,4.68,0,0,0-1,1.63,3.18,3.18,0,0,0-.62,0H9.09a.89.89,0,1,0,0,1.78H28.58a2.51,2.51,0,0,1,2.5,2.5V55.7a2.51,2.51,0,0,1-2.5,2.5H4.28a2.5,2.5,0,0,1-2.5-2.5V19.84a2.51,2.51,0,0,1,2.5-2.5H6.12a.89.89,0,1,0,0-1.78H4.28A4.28,4.28,0,0,0,0,19.84V55.71A4.29,4.29,0,0,0,4.28,60H28.57a4.28,4.28,0,0,0,4.28-4.28V21.77h3.4V55.45a.88.88,0,0,0,.89.89H58.9a.89.89,0,0,0,.89-.89V41.68a.89.89,0,0,0-1.78,0V54.57H38V17.2a4.53,4.53,0,0,0-.95-2.79H55.23a2.83,2.83,0,0,1,2,.81,2.77,2.77,0,0,1,.82,2V38.7A.89.89,0,0,0,58.91,39.6ZM35.44,15.23a2.81,2.81,0,0,1,.82,2V20h-3.4v-.15a4.3,4.3,0,0,0-2-3.62,3,3,0,0,1,.63-1,2.81,2.81,0,0,1,2-.82h0A2.86,2.86,0,0,1,35.44,15.23Z" fill="#fff"/><path d="M29.3,20a.89.89,0,0,0-.89-.9h-24a.89.89,0,0,0-.89.9v8.81a.89.89,0,0,0,.89.89h24a.89.89,0,0,0,.89-.89Zm-1.78,7.92H5.34v-7H27.52v7Z" fill="#fff"/><path d="M28.41,31.69h-24a.89.89,0,0,0-.89.89V55.64a.89.89,0,0,0,.89.89h24a.89.89,0,0,0,.89-.89v-23A.9.9,0,0,0,28.41,31.69Zm-.89,7.88h-6V33.48h6Zm0,7.31h-6V41.36h6ZM5.34,41.36h6v5.52h-6Zm7.82,0H19.7v5.52H13.16Zm6.54-7.88v6.09H13.16V33.48Zm-8.32,0v6.09h-6V33.48Zm-6,15.18h6v6.09h-6Zm7.82,6.09V48.66H19.7v6.09Zm8.32,0V48.66h6v6.09Z" fill="#fff"/><path d="M43,17.14H40.63a.9.9,0,0,0,0,1.79H43a.9.9,0,0,0,0-1.79Z" fill="#fff"/><path d="M55.48,17.14H46.09a.9.9,0,0,0,0,1.79h9.39a.9.9,0,0,0,0-1.79Z" fill="#fff"/><path d="M43,37.22H40.63a.89.89,0,0,0,0,1.78H43a.89.89,0,1,0,0-1.78Z" fill="#fff"/><path d="M56.37,38.12a.89.89,0,0,0-.89-.89H46.09a.89.89,0,0,0,0,1.78h9.39A.9.9,0,0,0,56.37,38.12Z" fill="#fff"/><path d="M43,32.2H40.63a.89.89,0,1,0,0,1.78H43a.89.89,0,1,0,0-1.78Z" fill="#fff"/><path d="M55.48,32.2H46.09a.89.89,0,1,0,0,1.78h9.39a.89.89,0,1,0,0-1.78Z" fill="#fff"/><path d="M43,27.19H40.63a.89.89,0,0,0,0,1.78H43a.89.89,0,1,0,0-1.78Z" fill="#fff"/><path d="M55.48,27.19H46.09a.89.89,0,0,0,0,1.78h9.39a.89.89,0,1,0,0-1.78Z" fill="#fff"/><path d="M43,22.17H40.63a.89.89,0,0,0,0,1.78H43a.89.89,0,1,0,0-1.78Z" fill="#fff"/><path d="M55.48,22.17H46.09a.89.89,0,0,0,0,1.78h9.39a.89.89,0,1,0,0-1.78Z" fill="#fff"/><path d="M25.9,5.94h2.38a.89.89,0,1,0,0-1.78H25.9a.89.89,0,0,0,0,1.78Z" fill="#fff"/><path d="M31.36,5.94h9.39a.89.89,0,1,0,0-1.78H31.36a.89.89,0,0,0,0,1.78Z" fill="#fff"/><path d="M25.9,11h2.38a.89.89,0,0,0,0-1.78H25.9a.89.89,0,0,0,0,1.78Z" fill="#fff"/><path d="M31.36,11h9.39a.89.89,0,0,0,0-1.78H31.36a.89.89,0,0,0,0,1.78Z" fill="#fff"/><path d="M48.06,52.18a.49.49,0,0,0,.35.13h0A.61.61,0,0,0,49,51.7v-.13a2.53,2.53,0,0,0,2.19-2.63c0-1.57-1-2.19-2.19-2.63V44.12a2.88,2.88,0,0,1,.81.28,1.17,1.17,0,0,0,.46.15c.48,0,.69-.58.69-.89,0-.64-1-.93-2-1v-.13a.61.61,0,0,0-1.22,0v.17a2.43,2.43,0,0,0-2.29,2.45c0,1.62,1.32,2.12,2.29,2.49V50.1a2.73,2.73,0,0,1-1.17-.6,1.09,1.09,0,0,0-.62-.32c-.42,0-.73.55-.73.91,0,.66,1,1.47,2.52,1.57v.05A.59.59,0,0,0,48.06,52.18Zm-.24-8v1.65c-.37-.17-.7-.4-.7-.87S47.36,44.31,47.82,44.18ZM49,50V48.13a1.06,1.06,0,0,1,.6,1A.92.92,0,0,1,49,50Z" fill="#fff"/><path d="M23.7,26.89h1.89a.89.89,0,1,0,0-1.78H23.7a.89.89,0,1,0,0,1.78Z" fill="#fff"/></svg>