<svg xmlns="http://www.w3.org/2000/svg" width="60" height="59.93" viewBox="0 0 60 59.93"><title>scheme-icon-5</title><path d="M10.6,51.86l19,8a1,1,0,0,0,.78,0l19-8a1,1,0,0,0,.62-.92V43.31l9.41-4.46a1,1,0,0,0,.56-.76,1,1,0,0,0-.32-.89l-9-8v0a.75.75,0,0,0-.33-.2l-6.12-2.14A34,34,0,0,1,54,21.94L53.46,20A36.19,36.19,0,0,0,41.9,26.1l-6.83-2.39c.38-.56.75-1.13,1.17-1.67a18.83,18.83,0,0,1,3.46-3.68,4.28,4.28,0,0,0,8.15,1.18,3.58,3.58,0,0,0,.27-2.19,3.63,3.63,0,0,0-2.65-2.67,5,5,0,0,0-1.66-.17,14.71,14.71,0,0,1,7.59-3.28l-.24-2a16.67,16.67,0,0,0-9.35,4.37,8.07,8.07,0,0,0-1.62,2,17.41,17.41,0,0,0-5.55,5.17c-.53.72-1,1.44-1.52,2.19L30.3,22a1.06,1.06,0,0,0-.66,0L22,24.7a20.08,20.08,0,0,0-3.08-3.27,14.88,14.88,0,0,0-9.13-3.6,8.84,8.84,0,0,0-7.39,3.23,6.3,6.3,0,0,0-1,4.68,5,5,0,0,0,2.1,3.34l1.1-1.67a3,3,0,0,1-1.24-2A4.18,4.18,0,0,1,4,22.24a6.77,6.77,0,0,1,5.72-2.41A12.94,12.94,0,0,1,17.6,23,17.16,17.16,0,0,1,20,25.4L9.65,29a1.08,1.08,0,0,0-.33.2h0l-9,8A1,1,0,0,0,0,38.1a1,1,0,0,0,.56.76L10,43.33V51A1,1,0,0,0,10.6,51.86ZM41.69,17.31a.61.61,0,0,1,.05-.18,7.79,7.79,0,0,1,.95-.37A4.09,4.09,0,0,1,45,16.61a1.72,1.72,0,0,1,1.24,1.15,1.56,1.56,0,0,1-.15,1,2.3,2.3,0,0,1-4.35-1.42ZM12,44.28l7.56,3.58a1,1,0,0,0,1.09-.16L29,40.21V57.44L12,50.29Zm36,6L31,57.44V40.2l8.33,7.49A1,1,0,0,0,40,48a1,1,0,0,0,.42-.1l7.57-3.59v6Zm-7.81-4.53-8.3-7.47,17.91-7.16,7.4,6.57ZM21.21,27.1a25.3,25.3,0,0,1,1.66,3l1.8-.86a26.87,26.87,0,0,0-1.52-2.77L30,24l2.12.74a35.86,35.86,0,0,0-2.5,5.28l1.86.72A35.61,35.61,0,0,1,34,25.46l6.11,2.14a29,29,0,0,0-2.8,2.86l1.53,1.29a28.22,28.22,0,0,1,3.43-3.39l4.83,1.69L30,36.9,12.82,30.05Zm-11,4L28.1,38.29l-8.3,7.47-17-8.06Z" fill="#fff"/><path d="M18.35,3.59a2,2,0,0,0-.7-1.2A2.11,2.11,0,0,0,16.24,2a5.61,5.61,0,0,0-4.75,3.14l1.8.86a3.62,3.62,0,0,1,3-2h.08A3.86,3.86,0,0,1,16,6a10.84,10.84,0,0,0-.47,1.65A1.67,1.67,0,0,0,15.81,9a1.62,1.62,0,0,0,1.48.61,11,11,0,0,0,2.1-.32A10.41,10.41,0,0,1,20.92,9l-.77,3.33a2.14,2.14,0,0,0,0,1.28,1.94,1.94,0,0,0,2.34,1,3.8,3.8,0,0,0,.51-.16,1.27,1.27,0,0,1,.49-.13c.21,0,.51.51.59,1.14,0,.17,0,.36,0,.54a4.4,4.4,0,0,0,.8,2.61l1.55-1.26a3,3,0,0,1-.36-1.52c0-.21,0-.41-.07-.61-.16-1.39-1-2.82-2.47-2.9a3.47,3.47,0,0,0-1.25.24l-.24.07L22.94,9a1.72,1.72,0,0,0-.08-1.18A1.61,1.61,0,0,0,21.31,7a9.14,9.14,0,0,0-2.39.33,12.43,12.43,0,0,1-1.33.25,6.66,6.66,0,0,1,.3-.89A5.39,5.39,0,0,0,18.35,3.59Z" fill="#fff"/><path d="M.25,15.05l2,.38A4.88,4.88,0,0,1,5.69,11.9a8.33,8.33,0,0,1,5.48.54,12.34,12.34,0,0,1,5,3.85l1.58-1.21A14.15,14.15,0,0,0,12,10.6,10.29,10.29,0,0,0,5.12,10,6.79,6.79,0,0,0,.25,15.05Z" fill="#fff"/><path d="M27,7l1.84-.8,2.41,5.55-1.83.8Z" fill="#fff"/><path d="M32.39,13l1.8.88a18.35,18.35,0,0,1,3.12-4.56L35.85,7.91A20.58,20.58,0,0,0,32.39,13Z" fill="#fff"/><path d="M31.29,7.44l2-.11a7.44,7.44,0,0,1,1.25-4.57L32.87,1.64A9.33,9.33,0,0,0,31.29,7.44Z" fill="#fff"/><path d="M56.76,19.21l.36,2A27.37,27.37,0,0,1,60,20.81l-.13-2C58.86,18.89,57.81,19,56.76,19.21Z" fill="#fff"/><path d="M25,0h2V2H25Z" fill="#fff"/><path d="M43,2h2V4H43Z" fill="#fff"/><path d="M55.94,12h2v2h-2Z" fill="#fff"/><path d="M3,2H5V4H3Z" fill="#fff"/><path d="M20,18h2v2H20Z" fill="#fff"/><path d="M9,24h2v2H9Z" fill="#fff"/></svg>