<svg xmlns="http://www.w3.org/2000/svg" width="60" height="60" viewBox="0 0 60 60"><title>scheme-icon-1</title><path d="M46.06,35a.93.93,0,0,0-.67-.28,1,1,0,0,0-.67.28.95.95,0,0,0,1.34,1.34,1,1,0,0,0,0-1.34Z" fill="#fff"/><path d="M59.06,0H34a1,1,0,0,0-1,.94V27.22l-.4-.36a7.75,7.75,0,0,0-5.24-2.06H14.56a7.75,7.75,0,0,0-7.73,7.74v.8l-.33-.13a4.9,4.9,0,0,0-1.78-.34A4.72,4.72,0,0,0,0,37.59v.11a4.56,4.56,0,0,0,2.24,3.92l.12.07v5.54a8.06,8.06,0,0,0,6.9,8l.3,0L8.14,58.7a1,1,0,0,0,.09.89A1,1,0,0,0,9,60h5.2a1,1,0,0,0,.77-.39l3.14-4.35h5.74L27,59.61a.93.93,0,0,0,.77.39H33a1,1,0,0,0,.79-.41,1,1,0,0,0,.09-.89l-1.42-3.47.3,0a8.07,8.07,0,0,0,6.9-8V41.69l.12-.07A4.56,4.56,0,0,0,42,37.7v-.11a4.72,4.72,0,0,0-4.72-4.72,4.9,4.9,0,0,0-1.78.34l-.33.13v-.8a7.43,7.43,0,0,0-.11-1.32L35,30.94h23.1v3.78H49.88a.95.95,0,1,0,0,1.89h9.18a1,1,0,0,0,.94-.94V.94A1,1,0,0,0,59.06,0ZM8.72,32.54a5.85,5.85,0,0,1,5.84-5.85H27.43a5.85,5.85,0,0,1,5.84,5.85v2.52l0,0a4.73,4.73,0,0,0-.71,2.48V40l-.36-.23a4.67,4.67,0,0,0-2.48-.7H12.28a4.84,4.84,0,0,0-2.48.7L9.45,40V37.59a4.76,4.76,0,0,0-.71-2.48l0,0V32.54ZM21,45a.94.94,0,0,0,.94-.94V41h7.78a2.84,2.84,0,0,1,2.83,2.84v2.94a1.43,1.43,0,0,1-1.42,1.42H10.87a1.43,1.43,0,0,1-1.42-1.42V43.82A2.84,2.84,0,0,1,12.28,41h7.78v3.09A.93.93,0,0,0,21,45Zm-7.26,13.1H10.43l1.17-2.85h4.19Zm14.52,0-2.05-2.85H30.4l1.17,2.85Zm9-23.35a2.85,2.85,0,0,1,2.84,2.83v.11a2.66,2.66,0,0,1-2.66,2.66.95.95,0,0,0,0,1.89h.3v5a6.16,6.16,0,0,1-6.15,6.15H10.39a6.15,6.15,0,0,1-6.14-6.15v-5h.3a.95.95,0,0,0,0-1.89A2.66,2.66,0,0,1,1.89,37.7v-.11a2.84,2.84,0,0,1,5.67,0v9.17a3.32,3.32,0,0,0,3.31,3.31H31.12a3.32,3.32,0,0,0,3.31-3.31V37.59A2.84,2.84,0,0,1,37.26,34.76Zm20.85-5.7H35V22.41l.07-.08L49.93,7.44a.94.94,0,1,0-1.34-1.33L35,19.74V1.89H58.11Z" fill="#fff"/><path d="M43,22.11a.92.92,0,0,0,.67.27.9.9,0,0,0,.67-.27L54.77,11.66a1,1,0,0,0,0-1.34,1,1,0,0,0-.68-.27,1,1,0,0,0-.67.27L43,20.78A.94.94,0,0,0,43,22.11Z" fill="#fff"/><path d="M40.87,23.27a1,1,0,0,0-.68.27.93.93,0,0,0-.27.67,1.06,1.06,0,0,0,.27.68,1,1,0,0,0,.68.27,1.05,1.05,0,0,0,.67-.27.93.93,0,0,0,.27-.68.94.94,0,0,0-.27-.67A1,1,0,0,0,40.87,23.27Z" fill="#fff"/></svg>